# xmcd
#
# Track frame offsets: 
#        150
#        32637
#        59575
#        81290
#        113320
#        139600
#        163987
#
# Disc length: 2903 seconds
#
# Revision: 3
# Processed by: cddbd v1.5.2PL0 Copyright (c) Steve Scherf et al.
# Submitted via: ExactAudioCopy v0.90b4
#
DISCID=560b5507
DTITLE=Fates Warning - The Spectre Within
DYEAR=1985
DGENRE=
TTITLE0=Traveler in Time
TTITLE1=Orphan Gypsy
TTITLE2=Without a Trace
TTITLE3=Pirates of the Underground
TTITLE4=The Apparition
TTITLE5=Kyrie Eleison
TTITLE6=Epitaph
EXTD=
EXTT0=
EXTT1=
EXTT2=
EXTT3=
EXTT4=
EXTT5=
EXTT6=
PLAYORDER=
